      <svg version="1.1" viewBox="0 0 800 800" width="50" height="50" xmlns="http://www.w3.org/2000/svg">
                    <path transform="translate(646,317)"
                        d="m0 0h1v19l-4 74-3 16-2 10h-4l-4-8-6-5-3-6-2 9-1 21-9 7-16 11-17 12-23 16-17 12-16 12-10 10-7 4-8 3-23 16-16 11-34 24-10 7-5 4-5-1-16-12-17-12-36-26-19-14-14-10-72-52-19-14-9-7-2-4-3-20v7l-1 5 2 11 4 7 5 4 14 7 3 4-6-1-8-4 7 7 8 6v2l4 2 21 16 13 10 5 5 1 2-6-2-17-11-19-14-6-5v-2l-3-1v-2l-5-2-7-8-6-5v-2l-5-1v-6l-2-6-1-24 1-8v-37l-1-12v-10l5 2 20 13 12 8 13 10 7 1 5 5 10 7 17 10-1-5-5-6-19-14-17-13-15-12-13-10-12-9-15-11-7-7h3l12 10 9 6 18 13 12 9 15 12 14 10 11 8 7 5h3l-24-16-1-3 6 1 10 6 11 8 14 10 17 12 14 11 7 9 5 6 13 8 19 13 11 9 14 10 9 5 5-2 16-10 15-10 13-10 6-8 1-4-16 8-12 8-11 8-7 4-10 8-3 1-6-3-11-7-7-6h3l10 6 9 6 5-1 7-6 11-7 17-13 23-12 8-5 7-4 12-9 21-12 17-9 15-10 15-9 10-8 2-2-10 7-12 8h-3l1-4 19-14 22-15 17-12 14-9 2-1 9-1 14-8zm-24 14-3 4 4-2zm-4 4m-2 1m-1 1m-2 1m-2 2m-2 1m-1 1m-1 1m-2 1m-2 1-20 13-7 5h3l9-5 17-12zm-28 19m-2 1-1 2 3-1zm48 5v5l2 1v-6zm-62 25-16 8-24 14-16 12-10 7-12 8-3 4v3l5-1 20-12 18-12 17-13 10-9 8-5 5-3zm-28 6-16 8-11 6-9 8-4 5 1 2 9-6 12-7 6-3 4-3v-2l5-2 5-4v-2zm-210 28 1 2h2v-2z"
                        fill="#CC2D29" />
                    <path transform="translate(165,164)"
                        d="m0 0 5 2 14 9 10 8 11 9 10 9 11 10 15 10 17 8 13 5 13 7 5 4 7 9 16 12 9 8 21 13 18 12 18 13 11 7 6 6 5 31 2 14-1 15-3 18-3 45-4-2-16-13-14-11-11-9-10-5-21-8-10-5-13-10-11-8-11-9-9-8-7-8-7-6-16-8-18-12-4-3v-2l6 1 16 10 7 5-2-9-3-16-1-3h-12l-5 1-13-4-10-6-5-5-9-11-5-6v-2l5 1 10 9 7 10 10 6 8 3 11-1-3-3-18-12-10-7-14-10-2-3 1-7-5 1-6-4-4-8v-2l-14-2-4-5-1-2v-12l4-13 3-2 8-1 2-16-1-31zm17 40m-1 1m65 37m1 1 2 4 20 15 11 6 2-2-9-6-13-8-9-8zm55 36 3 5 14 10 2-1-11-10-6-4zm48 21-4 5 6 7 5 4 12 2 10 5 4 4v15l2 26 1 30 3 12 2-1 4-25 2-11-2-19-4-26-3-5-13-8-21-14zm-106 15 3 11 3 7 7 5 17 6 19 7 21 14 20 15 18 10 4 2-4-5-20-14-24-16-14-10-15-10-25-17-7-5zm132 35-1 1-2 11v10l2 10 6 4v-22l-3-14zm-111 1m2 1m2 1m3 1 4 3 6 4 11 10 18 13 11 8 9 6 8 4 2-1-8-7-18-13-11-10-14-11-15-6zm102 33v4l4 2v-3zm-18 5 2 7h2l1-3-3-4zm23 1-4 5v2l-10-1-2 1 1 5 9 6 10 5h1v-9l-2-13zm-28 9v4l12 8 13 16 5 5 3-1 1-11-16-10-13-10z"
                        fill="#CC2D29" />
                    <path transform="translate(637,171)"
                        d="m0 0h2l3 10v9l-2 14-1 19 3 9 1 6v10l-4 2-3 16-4 15-5 7-5-1-12-8h-1l-1 11-4 5-16 11-17 12-7 5-5 7-11 4-11 8-18 13-16 11-17 12-18 13-19 13-8 6h-3v-41h-2v13l-2 8-4 8h-1l1-9 2-6 1-14 2-5 1-25 7-8 10-7 5-5 9-7 3-4v-2l-7 1-14 7-16 9-9 5-2 2-1 11 3 52 3 11v21l-1 8 18-9-2 4-14 11-4 3h-2v-18l1-8-4-2v-13l1-4-2-17-1-16v-30l4-7 18-11 12-7 7-5 4-1 1-2-6 2-2 2-4-1 2-4 5-2 5-5 14-9 6-2 2 1 11-6 11-7 9-6 14-11 20-13 5-12-12 5-15 11-8 9-7 8-8 6-7 4-2-1 9-6 8-7 10-13 10-8 9-7 11-5 7-3 8-7 9-4 12-6 6-7 23-14zm-57 42-6 3-3 2-1 5 5-1 8-3 3-6zm23 0-12 5-10 6-10 8-4 3-1 5 6-1 9-5 5-6 4-2 5-3 4-6 11-3v-1zm18 9 1 2zm14 3 1 3v-3zm-45 3-3 4v4h5l2-2v-5zm46 2 2 17 2-1v-8l-2-8zm-27 9-1 2v8h4l5-6-5-4z"
                        fill="#CC2D29" />
                    <path transform="translate(237,311)"
                        d="m0 0h4v2l5 1-2 1 5 15 5 5 8 4 29 10 16 10 19 14 10 7 16 9 5 5 1 4 2 1v-2l2 1-1 2h2l3 6 14 8 3 1 1-5h1v6l2 1 1 4-2 7v3l6 2v2h2l1 2v11l-4-2-16-13-14-11-11-9-10-5-21-8-10-5-13-10-11-8-11-9-9-8-7-8-7-6-16-8-18-12-4-3v-2l6 1 16 10 7 5-2-9zm28 40m2 1m2 1m3 1 4 3 6 4 11 10 18 13 11 8 9 6 8 4 2-1-8-7-18-13-11-10-14-11-15-6zm79 48v4l12 8 13 16 5 5 3-1 1-11-16-10-13-10z"
                        fill="#CE2D29" />
                    <path transform="translate(237,311)"
                        d="m0 0h4v2l5 1-2 1 5 15 5 5 8 4 5 2-4 1 1 4-1 2 4 1v3l14 7 7 7 13 10 20 14 8 6 6 3-2 5-9-2-11-5-11-7-9-7-13-10-13-11-11-12-7-5-14-7-18-12-4-3v-2l6 1 16 10 7 5-2-9z"
                        fill="#CE2D29" />
                    <path transform="translate(340,287)"
                        d="m0 0 5 2 15 10 18 13 11 7 6 6 5 31 2 14-1 15-3 18-1 16-2-2v-2l-2-1-2-5 1-11 3-17 1-8-2-19-4-26-2-4-13-8-21-14-5-1-2-5-3-1-1-4h-3z"
                        fill="#E2302D" />
                    <path transform="translate(169,317)"
                        d="m0 0h2l5 56 5 41 2 30 2 10 4 4 14 10 7 6v2l-5-1-14-9-9-7-3-9-1-4-3-34-5-48-2-36v-10z"
                        fill="#E2312E" />
                    <path transform="translate(462,303)"
                        d="m0 0 3 3-16 8-16 9-9 5-2 2-1 11 3 52 3 11v21l-1 8 18-9-2 4-14 11-4 3h-2v-18l1-8-4-2v-13l1-4-2-17-1-16v-30l4-7 18-11 12-7 7-5z"
                        fill="#E3312E" />
                    <path transform="translate(237,311)"
                        d="m0 0h4v2l5 1-2 1 5 15 5 5 8 4 5 2-4 1 1 4-1 2 4 1v3l2 2-1 2h-3l-1 2-10-10-19-10-18-12-4-3v-2l6 1 16 10 7 5-2-9z"
                        fill="#E3312E" />
                    <path transform="translate(175,324)"
                        d="m0 0 4 2 13 10 36 26 12 10 18 13 11 8 7 5h3l-24-16-1-3 6 1 10 6 11 8 14 10 3 3-5-1-4-2-12 2-4-5-19-14-17-13-15-12-13-10-12-9-15-11-7-7z"
                        fill="#E2302D" />
                    <path transform="translate(619,329)"
                        d="m0 0h8l-4 4h-2l-7 6-2 2-4 2-2 2-8 4-15 10-34 24-5 1 1-4 19-14 22-15 17-12 14-9z"
                        fill="#D32E2A" />
                    <path transform="translate(579,209)"
                        d="m0 0h12l-1 4-4 1h-6l-6 3-3 1-1 5 2 1-1 1h-6l-6 2v3h-2v2h-3l1-4-12 5-15 11-8 9-7 8-8 6-7 4-2-1 9-6 8-7 10-13 10-8 9-7 11-5 7-3 8-7 9-4z"
                        fill="#E2302D" />
                    <path transform="translate(530,396)"
                        d="m0 0 4 1 1 4-8 3-16 8-11 7-8 9-1 4-6 2-6-1-1-3-2-1 10-8 22-13 19-10z" fill="#E2302D" />
                    <path transform="translate(190,356)" d="m0 0 5 2 20 13 9 6v2h-11v-2h-10l-3 1-5-1-4 1-1-12z"
                        fill="#E2302D" />
                    <path transform="translate(210,467)"
                        d="m0 0 8 6 5 4v2l4 2 21 16 13 10 5 5 1 2-6-2-17-11-19-14-6-5v-2l-3-1v-2l-5-2-5-7z"
                        fill="#E3312E" />
                    <path transform="translate(637,171)" d="m0 0h2l3 10v9l-1 6-1-3h-2v-2l-9-3-8 4-4-2 1-7z"
                        fill="#E2302D" />
                    <path transform="translate(165,164)"
                        d="m0 0 5 2 14 9 10 8 8 6-2 3-9-5-3-5h-2v-2h-7l-7 3-5-1-2 4-1-21z" fill="#E2302D" />
                    <path transform="translate(191,421)"
                        d="m0 0 5 1-1 6-1 8 2 11 4 7 5 4 14 7 3 4-6-1-8-4 2 4h-5l-7-6v-2l-5-1v-6l-2-6-1-24z"
                        fill="#D22E2A" />
                    <path transform="translate(357,413)"
                        d="m0 0 5 2h3l11 14 5 5h2l1-8 2 2v3l6 2v2h2l1 2v11l-4-2-16-13-14-11-3-4 1-1-2-1z"
                        fill="#E2302D" />
                    <path transform="translate(177,276)"
                        d="m0 0 5 1 10 9 7 10 10 6 8 3 9-1 3-1-1 4 4 1-13 2-13-4-10-6-5-5-9-11-5-6z" fill="#E3312E" />
                    <path transform="translate(460,438)"
                        d="m0 0h1v8l-1-3-16 8-12 8-11 8-7 4-10 8-3 1-6-3-11-7-7-6h3l10 6 9 6 5-1 7-6 11-7 17-13z"
                        fill="#E3322F" />
                    <path transform="translate(455,575)"
                        d="m0 0v3l-14 11-16 12-18 13h-5l-14-9-6-5 3-1 10 5 10 6 7-4 15-12 24-16z" fill="#E3312E" />
                    <path transform="translate(298,382)" d="m0 0h5l5 4 1 2 4 2v2l6 2 6 3 1 5-9-3-11-6-10-8-2-2z"
                        fill="#E2302D" />
                    <path transform="translate(525,408)" d="m0 0 2 3-2 1 1 2-10 6-13 10-6-2v2h-5l4-4 17-10 10-5v-2z"
                        fill="#DE302C" />
                    <path transform="translate(288,508)"
                        d="m0 0 5 2v2l3 1 4 4 5 2v2l4 1 6 5 6 3v2l3 1 3 5 1 2-5-2-13-10-17-12-8-6z" fill="#E3312E" />
                    <path transform="translate(151,221)" d="m0 0h3l4 14 1 1v8l-5 1-1 2-4-5 1-5z" fill="#E3312E" />
                    <path transform="translate(636,220)"
                        d="m0 0 4 4 3 14v10l-4 2-1 5h-1v-14h1l1 5v-8l-1-8-1 1v6h-1l-2-6v-5h2l-1-3z" fill="#D32E2A" />
                    <path transform="translate(384,355)" d="m0 0h1l1 13v28h-1l-1-8v-8l-3-2-1-20 4-1z" fill="#E1302D" />
                    <path transform="translate(646,317)" d="m0 0h1v19l-2-4h-1l-5-2h-3l-2-1-1-4 12-7z" fill="#E3312E" />
                    <path transform="translate(370,409)" d="m0 0 13 6 1-5h1v6l2 1 1 4-2 5-1-3-5-2-11-7z"
                        fill="#E2302D" />
                    <path transform="translate(449,327)"
                        d="m0 0 1 3-4-1zm-5 3 2 1-5 5v6l2 3v5l-3 1-1 2-1-6-1 11h-1v-19l7-8z" fill="#D82F2B" />
                    <path transform="translate(435,364)" d="m0 0 3 2v3h-2v13l-2 8-4 8h-1l1-9 2-6 1-14z"
                        fill="#D52E2B" />
                    <path transform="translate(539,353)" d="m0 0v3l-4 4h-2v2l-8 7h-2v2l-8 7-3 1 2-4 8-9 16-12z"
                        fill="#E33532" />
                    <path transform="translate(393,399)" d="m0 0 4 2v18l-2-2v-2l-2-1-2-5 1-7z" fill="#E2302D" />
                    <path transform="translate(195,391)" d="m0 0 4 2 1 4v7l-3 5h-2l-1-9z" fill="#E3312E" />
                    <path transform="translate(346,552)" d="m0 0 7 2 4 4 2 1v2l6 2v2h2l1 4-5-2-13-10-4-3z"
                        fill="#E3312E" />
                    <path transform="translate(191,421)" d="m0 0 5 1-1 6-1 8v7l-3-3-1-17z" fill="#D72F2B" />
                    <path transform="translate(203,457)" d="m0 0 16 8 3 4-6-1-7-4-4-1z" fill="#D82F2B" />
                    <path transform="translate(461,295)" d="m0 0 1 2 4-1-1 4-2 3v-2l-6 2-2 2-4-1 2-4 5-2z"
                        fill="#E2302D" />
                    <path transform="translate(438,371)" d="m0 0h1l1 30 3 2h-3v2h2v2l-2 1 1 2h-3z" fill="#E3312E" />
                    <path transform="translate(276,237)" d="m0 0 8 4 5 4 1 3h-3l-5-3-4-2-2-2z" fill="#E0302D" />
                    <path transform="translate(636,220)" d="m0 0 4 4 1 6h-2l-1 3v-3l-1 1v6h-1l-2-6v-5h2l-1-3z"
                        fill="#D92F2B" />
                    <path transform="translate(202,190)" d="m0 0 8 6 7 7h-3l-7-3-4-5z" fill="#E2302D" />
                    <path transform="translate(252,495)" d="m0 0 9 4 6 5 1 4-7-4-9-7z" fill="#E33C39" />
                    <path transform="translate(377,463)" d="m0 0 5 2 9 6 7 5-3 1-11-7-7-6z" fill="#E1302D" />
                    <path transform="translate(169,317)" d="m0 0h2l1 15-4-2v-12z" fill="#E34D4B" />
                    <path transform="translate(256,213)" d="m0 0 4 2 7 5-1 3-8-4-2-2z" fill="#E3312E" />
                    <path transform="translate(439,337)" d="m0 0 2 1 1 6 1 1v5l-3 1-1 2-1-7z" fill="#E3312E" />
                    <path transform="translate(632,429)" d="m0 0h6v7h-4l-2-3z" fill="#E3312E" />
                    <path transform="translate(331,541)" d="m0 0 6 1 5 7-1 2-11-8z" fill="#E3312E" />
                    <path transform="translate(283,372)" d="m0 0 7 2 1 3 2 2h-2l-1 2-8-6z" fill="#E3312E" />
                    <path transform="translate(225,378)" d="m0 0 9 6 3 4-7-1-5-7z" fill="#E3312E" />
                    <path transform="translate(525,408)" d="m0 0 2 3-2 1 1 2-5 3-4-1 4-5h2v-2z" fill="#DA2F2C" />
                    <path transform="translate(150,226)" d="m0 0h1v11l-2 4-1-1v-12z" fill="#D32E2A" />
                    <path transform="translate(432,395)" d="m0 0h3l1 7-3 1-3-2 1-5z" fill="#DF302D" />
                    <path transform="translate(191,429)" d="m0 0 4 1-1 6v7l-3-3z" fill="#E1302D" />
                    <path transform="translate(432,383)" d="m0 0 3 2-1 5-4 8h-1l1-9z" fill="#DD2F2C" />
                    <path transform="translate(511,259)" d="m0 0 3 1-7 6-9 5-2-1 9-6z" fill="#D72E2B" />
                    <path transform="translate(393,399)" d="m0 0 4 2-1 6-4-1z" fill="#CC2D29" />
                    <path transform="translate(441,416)" d="m0 0h3l-2 4-4 4-3-1z" fill="#E2302D" />
                    <path transform="translate(264,232)" d="m0 0 5 1 6 3v3l-5-2-6-4z" fill="#E1302D" />
                    <path transform="translate(637,241)" d="m0 0h1l1 5 1 2 2 1-3 1-1 5h-1z" fill="#E3312E" />
                    <path transform="translate(634,226)" d="m0 0h3l2 3-1 4v-3l-1 1v6h-1l-2-6z" fill="#E3312E" />
                    <path transform="translate(367,456)" d="m0 0 4 1 3 4-5-2v-2z" fill="#E3312E" />
                    <path transform="translate(529,537)" d="m0 0h3v2h-3z" fill="#E3312E" />
                    <path transform="translate(625,445)" d="m0 0 3 1-3 1z" fill="#D92F2C" />
                    <path transform="translate(462,569)" d="m0 0 2 1h-3z" fill="#E3312E" />
                    <path transform="translate(270,517)" d="m0 0h3l-1 2z" fill="#E3312E" />
                    <path transform="translate(375,462)" d="m0 0 2 1z" fill="#E3312E" />
                    <path transform="translate(459,572)" d="m0 0" fill="#E3312E" />
                    <path transform="translate(460,571)" d="m0 0" fill="#E3312E" />
                    <path transform="translate(374,461)" d="m0 0" fill="#E3312E" />
                    <path transform="translate(361,451)" d="m0 0" fill="#E3312E" />
                </svg>